<svg width="20" height="18" viewBox="0 0 20 18" fill="none" xmlns="http://www.w3.org/2000/svg">
<path d="M9.50006 9.00001H3.41847M3.24609 9.79721L2.24133 12.7986C1.69103 14.4424 1.41588 15.2643 1.61334 15.7704C1.78482 16.21 2.15311 16.5432 2.60755 16.6701C3.13086 16.8161 3.92126 16.4604 5.50207 15.7491L15.6365 11.1886C17.1794 10.4942 17.9509 10.1471 18.1894 9.66478C18.3966 9.24577 18.3966 8.75415 18.1894 8.33514C17.9509 7.85286 17.1794 7.50569 15.6365 6.81135L5.48458 2.24303C3.90855 1.53382 3.12053 1.17921 2.59775 1.32468C2.14373 1.45101 1.77547 1.78336 1.6034 2.22209C1.40527 2.72728 1.67748 3.54741 2.2219 5.18767L3.24804 8.2793C3.34155 8.56102 3.3883 8.70188 3.40676 8.84594C3.42314 8.97378 3.42297 9.10319 3.40626 9.23098C3.38744 9.375 3.34032 9.51574 3.24609 9.79721Z" stroke="#0066FF" stroke-width="2" stroke-linecap="round" stroke-linejoin="round"/>
</svg>
