<svg width="20" height="20" viewBox="0 0 20 20" fill="none" xmlns="http://www.w3.org/2000/svg">
<path d="M0 20H2C2.55 20 3 19.5 3 18.8889V8.88889C3 8.27778 2.55 7.77778 2 7.77778H0V20ZM19.83 12.0889C19.94 11.8111 20 11.5111 20 11.2V10C20 8.77778 19.1 7.77778 18 7.77778H12.5L13.42 2.61111C13.47 2.36667 13.44 2.1 13.34 1.87778C13.11 1.37778 12.82 0.922222 12.46 0.522222L12 0L5.59 7.12222C5.21 7.54444 5 8.11111 5 8.7V17.4111C5 18.8333 6.05 20 7.34 20H15.45C16.15 20 16.81 19.5889 17.17 18.9222L19.83 12.0889Z" fill="#323232"/>
</svg>
